<mxfile>
  <diagram name="Community User">
    <mxGraphModel dx="1475" dy="775" grid="1" gridSize="10" guides="1" tooltips="1" connect="1" arrows="1" fold="1" page="1" pageScale="1" pageWidth="850" pageHeight="1100" math="0" shadow="0">
      <root>
        <mxCell id="0" />
        <mxCell id="1" parent="0" />
        <mxCell id="2" value="" style="shape=actor;whiteSpace=wrap;html=1;" vertex="1" parent="1">
          <mxGeometry x="100" y="300" width="40" height="80" as="geometry" />
        </mxCell>
        <mxCell id="3" value="Community User" style="text;html=1;whiteSpace=wrap;" vertex="1" parent="1">
          <mxGeometry x="80" y="380" width="80" height="20" as="geometry" />
        </mxCell>
        <mxCell id="4" value="View Products" style="ellipse;whiteSpace=wrap;html=1;" vertex="1" parent="1">
          <mxGeometry x="300" y="100" width="160" height="40" as="geometry" />
        </mxCell>
        <mxCell id="5" value="" edge="1" parent="1" source="2" target="4">
          <mxGeometry relative="1" as="geometry" />
        </mxCell>
        <mxCell id="6" value="Buy Products" style="ellipse;whiteSpace=wrap;html=1;" vertex="1" parent="1">
          <mxGeometry x="300" y="200" width="160" height="40" as="geometry" />
        </mxCell>
        <mxCell id="7" value="" edge="1" parent="1" source="2" target="6">
          <mxGeometry relative="1" as="geometry" />
        </mxCell>
        <mxCell id="8" value="View Product Details" style="ellipse;whiteSpace=wrap;html=1;" vertex="1" parent="1">
          <mxGeometry x="300" y="300" width="160" height="40" as="geometry" />
        </mxCell>
        <mxCell id="9" value="" edge="1" parent="1" source="2" target="8">
          <mxGeometry relative="1" as="geometry" />
        </mxCell>
        <mxCell id="10" value="Support Women Entrepreneurship" style="ellipse;whiteSpace=wrap;html=1;" vertex="1" parent="1">
          <mxGeometry x="300" y="400" width="260" height="40" as="geometry" />
        </mxCell>
        <mxCell id="11" value="" edge="1" parent="1" source="2" target="10">
          <mxGeometry relative="1" as="geometry" />
        </mxCell>
      </root>
    </mxGraphModel>
  </diagram>
  <diagram name="Entrepreneur">
    <mxGraphModel dx="1475" dy="775" grid="1" gridSize="10" guides="1" tooltips="1" connect="1" arrows="1" fold="1" page="1" pageScale="1" pageWidth="850" pageHeight="1100" math="0" shadow="0">
      <root>
        <mxCell id="0" />
        <mxCell id="1" parent="0" />
        <mxCell id="2" value="" style="shape=actor;whiteSpace=wrap;html=1;" vertex="1" parent="1">
          <mxGeometry x="100" y="300" width="40" height="80" as="geometry" />
        </mxCell>
        <mxCell id="3" value="Entrepreneur" style="text;html=1;whiteSpace=wrap;" vertex="1" parent="1">
          <mxGeometry x="80" y="380" width="80" height="20" as="geometry" />
        </mxCell>
        <mxCell id="4" value="Access Entrepreneur Community" style="ellipse;whiteSpace=wrap;html=1;" vertex="1" parent="1">
          <mxGeometry x="300" y="50" width="200" height="40" as="geometry" />
        </mxCell>
        <mxCell id="5" value="" edge="1" parent="1" source="2" target="4">
          <mxGeometry relative="1" as="geometry" />
        </mxCell>
        <mxCell id="6" value="Add Products" style="ellipse;whiteSpace=wrap;html=1;" vertex="1" parent="1">
          <mxGeometry x="300" y="120" width="160" height="40" as="geometry" />
        </mxCell>
        <mxCell id="7" value="" edge="1" parent="1" source="2" target="6">
          <mxGeometry relative="1" as="geometry" />
        </mxCell>
        <mxCell id="8" value="View Products" style="ellipse;whiteSpace=wrap;html=1;" vertex="1" parent="1">
          <mxGeometry x="300" y="190" width="160" height="40" as="geometry" />
        </mxCell>
        <mxCell id="9" value="" edge="1" parent="1" source="2" target="8">
          <mxGeometry relative="1" as="geometry" />
        </mxCell>
        <mxCell id="10" value="Delete Products" style="ellipse;whiteSpace=wrap;html=1;" vertex="1" parent="1">
          <mxGeometry x="300" y="260" width="160" height="40" as="geometry" />
        </mxCell>
        <mxCell id="11" value="" edge="1" parent="1" source="2" target="10">
          <mxGeometry relative="1" as="geometry" />
        </mxCell>
        <mxCell id="12" value="Learn from Courses" style="ellipse;whiteSpace=wrap;html=1;" vertex="1" parent="1">
          <mxGeometry x="300" y="330" width="180" height="40" as="geometry" />
        </mxCell>
        <mxCell id="13" value="" edge="1" parent="1" source="2" target="12">
          <mxGeometry relative="1" as="geometry" />
        </mxCell>
        <mxCell id="14" value="Access Tutorials" style="ellipse;whiteSpace=wrap;html=1;" vertex="1" parent="1">
          <mxGeometry x="300" y="400" width="160" height="40" as="geometry" />
        </mxCell>
        <mxCell id="15" value="" edge="1" parent="1" source="2" target="14">
          <mxGeometry relative="1" as="geometry" />
        </mxCell>
        <mxCell id="16" value="Contact Mentors" style="ellipse;whiteSpace=wrap;html=1;" vertex="1" parent="1">
          <mxGeometry x="300" y="470" width="160" height="40" as="geometry" />
        </mxCell>
        <mxCell id="17" value="" edge="1" parent="1" source="2" target="16">
          <mxGeometry relative="1" as="geometry" />
        </mxCell>
      </root>
    </mxGraphModel>
  </diagram>
</mxfile>
